<svg width="20" height="20" viewBox="0 0 20 20" fill="none" xmlns="http://www.w3.org/2000/svg">
<path d="M10 0C4.48615 0 0 4.48577 0 10C0 15.5142 4.48615 20 10 20C15.5138 20 20 15.5142 20 10C20 4.48577 15.5138 0 10 0ZM10 19.2308C4.91038 19.2308 0.769231 15.0896 0.769231 10C0.769231 4.91038 4.91038 0.769231 10 0.769231C15.0896 0.769231 19.2308 4.91038 19.2308 10C19.2308 15.0896 15.0896 19.2308 10 19.2308Z" fill="#727070"/>
<path d="M13.7335 6.26654C13.5831 6.11615 13.34 6.11615 13.1896 6.26654L10 9.45615L6.81038 6.26654C6.66 6.11615 6.41692 6.11615 6.26654 6.26654C6.11615 6.41692 6.11615 6.66 6.26654 6.81038L9.45615 10L6.26654 13.1896C6.11615 13.34 6.11615 13.5831 6.26654 13.7335C6.34154 13.8085 6.44 13.8462 6.53846 13.8462C6.63692 13.8462 6.73538 13.8085 6.81038 13.7335L10 10.5438L13.1896 13.7335C13.2646 13.8085 13.3631 13.8462 13.4615 13.8462C13.56 13.8462 13.6585 13.8085 13.7335 13.7335C13.8838 13.5831 13.8838 13.34 13.7335 13.1896L10.5438 10L13.7335 6.81038C13.8838 6.66 13.8838 6.41692 13.7335 6.26654Z" fill="#727070"/>
</svg>