<svg width="26" height="26" viewBox="0 0 26 26" fill="none" xmlns="http://www.w3.org/2000/svg">
<g clip-path="url(#clip0)">
<path d="M22.76 21.9299L20.9847 18.8294C20.1663 17.3983 19.7333 15.7603 19.7333 14.0909V11.3749C19.7333 7.19438 16.4876 3.79163 12.5 3.79163C8.51238 3.79163 5.26667 7.19438 5.26667 11.3749V14.0909C5.26667 15.7603 4.83369 17.3983 4.01529 18.8294L2.24 21.9299C2.1439 22.0967 2.14182 22.3058 2.23278 22.4748C2.32477 22.6449 2.4973 22.75 2.6833 22.75H22.3167C22.5027 22.75 22.6752 22.6449 22.7672 22.4748C22.8581 22.3058 22.8561 22.0967 22.76 21.9299ZM3.59577 21.6666L4.90087 19.3862C5.81639 17.7872 6.29999 15.9564 6.29999 14.0909V11.3749C6.29999 7.79019 9.0807 4.87494 12.5 4.87494C15.9193 4.87494 18.7 7.79019 18.7 11.3749V14.0909C18.7 15.9564 19.1836 17.7872 20.0981 19.3862L21.4042 21.6666H3.59577Z" fill="#AEAEAE"/>
<path d="M12.5001 0C11.5809 0 10.8334 0.97175 10.8334 2.16668V4.33337C10.8334 4.63232 11.0201 4.875 11.2501 4.875C11.4801 4.875 11.6667 4.63232 11.6667 4.33332V2.16668C11.6667 1.56868 12.0401 1.08337 12.5001 1.08337C12.9601 1.08337 13.3334 1.56868 13.3334 2.16668V4.33337C13.3334 4.63232 13.5201 4.875 13.7501 4.875C13.9801 4.875 14.1667 4.63232 14.1667 4.33332V2.16668C14.1667 0.97175 13.4192 0 12.5001 0Z" fill="#AEAEAE"/>
<path d="M14.4098 21.9343C14.2852 21.6765 14.0158 21.592 13.8047 21.7404C13.5935 21.892 13.5229 22.2246 13.6465 22.4824C13.7614 22.7219 13.8241 23.0089 13.8241 23.2917C13.8241 24.1876 13.2296 24.9167 12.499 24.9167C11.7684 24.9167 11.1739 24.1876 11.1739 23.2917C11.1739 23.0089 11.2366 22.7219 11.3514 22.4824C11.4742 22.2235 11.4036 21.892 11.1933 21.7404C10.9804 21.5919 10.7118 21.6764 10.5882 21.9343C10.3929 22.3438 10.2896 22.8129 10.2896 23.2917C10.2896 24.7856 11.2799 26 12.4981 26C13.7164 26 14.7066 24.7856 14.7084 23.2917C14.7084 22.8129 14.6051 22.3438 14.4098 21.9343Z" fill="#AEAEAE"/>
</g>
<defs>
<clipPath id="clip0">
<rect width="26" height="26" fill="white" transform="matrix(-1 0 0 1 26 0)"/>
</clipPath>
</defs>
</svg>