<?xml version="1.0" encoding="utf-8"?>
<!-- Generator: Adobe Illustrator 19.2.1, SVG Export Plug-In . SVG Version: 6.00 Build 0)  -->
<svg version="1.1" id="Layer_1" xmlns="http://www.w3.org/2000/svg" xmlns:xlink="http://www.w3.org/1999/xlink" x="0px" y="0px"
	 viewBox="0 0 1680 1680" style="enable-background:new 0 0 1680 1680;" xml:space="preserve">
<style type="text/css">
	.st0{clip-path:url(#SVGID_2_);fill:#FFFFFF;}
	.st1{clip-path:url(#SVGID_4_);fill:#F04C23;}
	.st2{clip-path:url(#SVGID_4_);fill:#FFFFFF;}
</style>
<g>
	<defs>
		<rect id="SVGID_1_" width="1680" height="1680"/>
	</defs>
	<clipPath id="SVGID_2_">
		<use xlink:href="#SVGID_1_"  style="overflow:visible;"/>
	</clipPath>
	<path class="st0" d="M502.6,899c-22.1,0-40.4-7.4-54.8-22.1c-14.4-14.7-21.6-33.6-21.6-56.4c0-21.8,7.9-40.6,23.8-56.4
		c15.9-15.9,34.7-23.8,56.4-23.8c24,0,43.1,8.7,57.3,26c14.2,17.3,21.3,40.6,21.3,69.7v255.6H792V821c0-90.4-25.7-161.7-77.2-213.9
		c-51.5-52.2-121.8-78.3-211.1-78.3c-80,0-148,27.9-203.9,83.5C243.9,668.1,216,736,216,816c0,82.3,27.7,150.7,83,205.3
		c55.3,54.6,124.5,81.9,207.5,81.9c14,0,29.5-1.5,46.5-4.4V884.6C537.5,894.2,520.7,899,502.6,899"/>
	<path class="st0" d="M1174.6,898.2c-22.1,0-40.4-7.4-54.8-22.1c-14.4-14.7-21.6-33.6-21.6-56.4c0-21.8,7.9-40.6,23.8-56.4
		c15.9-15.9,34.7-23.8,56.4-23.8c24,0,43.1,8.7,57.3,26c14.2,17.3,21.3,40.6,21.3,69.7v255.6H1464V820.2
		c0-90.4-25.7-161.7-77.2-213.9c-51.5-52.2-121.8-78.3-211.1-78.3c-80,0-148,27.9-203.9,83.6C915.9,667.3,888,735.1,888,815.2
		c0,82.3,27.7,150.7,83,205.3c55.3,54.6,124.5,81.9,207.5,81.9c14,0,29.5-1.5,46.5-4.4V883.8
		C1209.5,893.4,1192.7,898.2,1174.6,898.2"/>
</g>
<g>
	<defs>
		<rect id="SVGID_3_" width="1680" height="1680"/>
	</defs>
	<clipPath id="SVGID_4_">
		<use xlink:href="#SVGID_3_"  style="overflow:visible;"/>
	</clipPath>
	<path class="st1" d="M840,1680c463.9,0,840-376.1,840-840S1303.9,0,840,0S0,376.1,0,840S376.1,1680,840,1680"/>
	<path class="st2" d="M502.6,899c-22.1,0-40.4-7.4-54.8-22.1c-14.4-14.7-21.6-33.6-21.6-56.4c0-21.8,7.9-40.6,23.8-56.4
		c15.9-15.9,34.7-23.8,56.4-23.8c24,0,43.1,8.7,57.3,26c14.2,17.3,21.3,40.6,21.3,69.7v255.6H792V821c0-90.4-25.7-161.7-77.2-213.9
		c-51.5-52.2-121.8-78.3-211.1-78.3c-80,0-148,27.9-203.9,83.5C243.9,668.1,216,736,216,816c0,82.3,27.7,150.7,83,205.3
		c55.3,54.6,124.5,81.9,207.5,81.9c14,0,29.5-1.5,46.5-4.4V884.6C537.5,894.2,520.7,899,502.6,899"/>
	<path class="st2" d="M1174.6,898.2c-22.1,0-40.4-7.4-54.8-22.1c-14.4-14.7-21.6-33.6-21.6-56.4c0-21.8,7.9-40.6,23.8-56.4
		c15.9-15.9,34.7-23.8,56.4-23.8c24,0,43.1,8.7,57.3,26c14.2,17.3,21.3,40.6,21.3,69.7v255.6H1464V820.2
		c0-90.4-25.7-161.7-77.2-213.9c-51.5-52.2-121.8-78.3-211.1-78.3c-80,0-148,27.9-203.9,83.6C915.9,667.3,888,735.1,888,815.2
		c0,82.3,27.7,150.7,83,205.3c55.3,54.6,124.5,81.9,207.5,81.9c14,0,29.5-1.5,46.5-4.4V883.8
		C1209.5,893.4,1192.7,898.2,1174.6,898.2"/>
</g>
</svg>